<svg width="343" height="214" viewBox="0 0 343 214" fill="none" xmlns="http://www.w3.org/2000/svg">
<g clip-path="url(#clip0_22_431)">
<path d="M115.158 59.421C115.158 28.0855 89.7559 2.68311 58.4205 2.68311C27.085 2.68311 1.68262 28.0855 1.68262 59.421C1.68262 90.7564 27.085 116.159 58.4205 116.159C89.7559 116.159 115.158 90.7564 115.158 59.421Z" fill="#191919"/>
<path d="M228.634 59.421C228.634 28.0855 203.232 2.68311 171.897 2.68311C140.561 2.68311 115.159 28.0855 115.159 59.421C115.159 90.7564 140.561 116.159 171.897 116.159C203.232 116.159 228.634 90.7564 228.634 59.421Z" fill="#191919"/>
<path d="M342.109 59.421C342.109 28.0855 316.707 2.68311 285.372 2.68311C254.036 2.68311 228.634 28.0855 228.634 59.421C228.634 90.7564 254.036 116.159 285.372 116.159C316.707 116.159 342.109 90.7564 342.109 59.421Z" fill="#191919"/>
<path d="M285.373 157.203C285.373 125.868 259.97 100.465 228.635 100.465C197.299 100.465 171.897 125.868 171.897 157.203C171.897 188.539 197.299 213.941 228.635 213.941C259.97 213.941 285.373 188.539 285.373 157.203Z" fill="#191919"/>
<path d="M171.898 157.203C171.898 125.868 146.495 100.465 115.16 100.465C83.8243 100.465 58.4219 125.868 58.4219 157.203C58.4219 188.539 83.8243 213.941 115.16 213.941C146.495 213.941 171.898 188.539 171.898 157.203Z" fill="#191919"/>
</g>
<defs>
<clipPath id="clip0_22_431">
<rect width="341.858" height="213.048" fill="white" transform="translate(0.954102 0.580566)"/>
</clipPath>
</defs>
</svg>
